<svg width="24" height="23" viewBox="0 0 24 23" fill="none" xmlns="http://www.w3.org/2000/svg">
<path d="M21.45 8.66417C19.3383 8.66417 18.475 7.17083 19.525 5.33917C20.1316 4.2775 19.77 2.92417 18.7083 2.3175L16.69 1.1625C15.7683 0.614165 14.5783 0.940832 14.03 1.8625L13.9016 2.08417C12.8516 3.91583 11.125 3.91583 10.0633 2.08417L9.93498 1.8625C9.80921 1.64198 9.64085 1.44867 9.43968 1.29382C9.2385 1.13898 9.00854 1.02569 8.76318 0.96055C8.51782 0.895409 8.26195 0.879717 8.01046 0.914387C7.75898 0.949057 7.5169 1.0334 7.29831 1.1625L5.27998 2.3175C4.21831 2.92417 3.85665 4.28917 4.46331 5.35083C5.52498 7.17083 4.66165 8.66417 2.54998 8.66417C1.33665 8.66417 0.333313 9.65583 0.333313 10.8808V12.9342C0.333313 14.1475 1.32498 15.1508 2.54998 15.1508C4.66165 15.1508 5.52498 16.6442 4.46331 18.4758C3.85665 19.5375 4.21831 20.8908 5.27998 21.4975L7.29831 22.6525C8.21998 23.2008 9.40998 22.8742 9.95831 21.9525L10.0866 21.7308C11.1366 19.8992 12.8633 19.8992 13.925 21.7308L14.0533 21.9525C14.6016 22.8742 15.7916 23.2008 16.7133 22.6525L18.7316 21.4975C19.7933 20.8908 20.155 19.5258 19.5483 18.4758C18.4866 16.6442 19.35 15.1508 21.4616 15.1508C22.675 15.1508 23.6783 14.1592 23.6783 12.9342V10.8808C23.6722 10.2928 23.4351 9.73079 23.0182 9.31607C22.6013 8.90134 22.038 8.6672 21.45 8.66417ZM12 15.6992C9.91165 15.6992 8.20831 13.9958 8.20831 11.9075C8.20831 9.81917 9.91165 8.11583 12 8.11583C14.0883 8.11583 15.7916 9.81917 15.7916 11.9075C15.7916 13.9958 14.0883 15.6992 12 15.6992Z" fill="black"/>
</svg>
