<svg width="23" height="24" viewBox="0 0 23 24" fill="none" xmlns="http://www.w3.org/2000/svg">
<path d="M21.6894 8.15601L13.7211 1.66369C12.4908 0.655854 10.5016 0.655854 9.28277 1.65197L1.31448 8.15601C0.417611 8.88259 -0.157302 10.4178 0.0381682 11.5662L1.56744 20.8946C1.8434 22.5587 3.40716 23.9063 5.06291 23.9063H17.941C19.5852 23.9063 21.1605 22.5469 21.4364 20.8946L22.9657 11.5662C23.1497 10.4178 22.5748 8.88259 21.6894 8.15601ZM11.5019 16.5117C10.7396 16.5117 10.0084 16.203 9.46931 15.6536C8.93023 15.1041 8.62737 14.3589 8.62737 13.5819C8.62737 12.8049 8.93023 12.0597 9.46931 11.5103C10.0084 10.9608 10.7396 10.6522 11.5019 10.6522C12.2643 10.6522 12.9955 10.9608 13.5346 11.5103C14.0736 12.0597 14.3765 12.8049 14.3765 13.5819C14.3765 14.3589 14.0736 15.1041 13.5346 15.6536C12.9955 16.203 12.2643 16.5117 11.5019 16.5117Z" fill="black"/>
</svg>
