<svg width="24" height="24" viewBox="0 0 24 24" fill="none" xmlns="http://www.w3.org/2000/svg">
<path d="M16.8266 0.406342H7.18483C2.99674 0.406342 0.5 2.90184 0.5 7.08784V16.7133C0.5 20.9108 2.99674 23.4063 7.18483 23.4063H16.8151C21.0032 23.4063 23.5 20.9108 23.5 16.7248V7.08784C23.5115 2.90184 21.0147 0.406342 16.8266 0.406342ZM16.608 12.7688H12.8687V16.5063C12.8687 16.9778 12.4775 17.3688 12.0057 17.3688C11.534 17.3688 11.1428 16.9778 11.1428 16.5063V12.7688H7.40344C6.9317 12.7688 6.54051 12.3778 6.54051 11.9063C6.54051 11.4348 6.9317 11.0438 7.40344 11.0438H11.1428V7.30634C11.1428 6.83484 11.534 6.44384 12.0057 6.44384C12.4775 6.44384 12.8687 6.83484 12.8687 7.30634V11.0438H16.608C17.0798 11.0438 17.471 11.4348 17.471 11.9063C17.471 12.3778 17.0798 12.7688 16.608 12.7688Z" fill="black"/>
</svg>
