<svg width="24" height="24" viewBox="0 0 24 24" fill="none" xmlns="http://www.w3.org/2000/svg">
<path d="M15 12C15 10.34 13.66 9 12 9C10.34 9 9 10.34 9 12C8.99941 12.4955 9.12173 12.9835 9.35601 13.4201C9.59029 13.8567 9.92921 14.2284 10.3424 14.5019C10.7556 14.7754 11.2302 14.9422 11.7237 14.9872C12.2172 15.0322 12.7141 14.9542 13.17 14.76" stroke="white" stroke-width="1.5" stroke-miterlimit="10" stroke-linecap="round" stroke-linejoin="round"/>
<path d="M6.88 20.58L7.97 21.21C8.76 21.68 9.78 21.4 10.25 20.61L10.36 20.42C11.26 18.85 12.74 18.85 13.65 20.42L13.76 20.61C14.23 21.4 15.25 21.68 16.04 21.21L17.77 20.22C18.68 19.7 18.99 18.53 18.47 17.63C17.56 16.06 18.3 14.78 20.11 14.78C21.15 14.78 22.01 13.93 22.01 12.88V11.12C22.01 10.08 21.16 9.22 20.11 9.22C19.1 9.22 18.42 8.81999 18.18 8.18999C17.99 7.69999 18.07 7.05999 18.47 6.36999C18.99 5.45999 18.68 4.29999 17.77 3.77999L16.96 3.31999M13.64 3.58099C12.74 5.15099 11.26 5.15099 10.35 3.58099L10.24 3.39099C10.1308 3.20203 9.9854 3.03652 9.81204 2.90398C9.63867 2.77145 9.4408 2.67451 9.22982 2.61875C9.01884 2.56298 8.79892 2.54949 8.58271 2.57905C8.3665 2.60861 8.15827 2.68064 7.97 2.79099L6.24 3.78099C5.33 4.30099 5.02 5.47099 5.54 6.38099C6.45 7.94099 5.71 9.22099 3.9 9.22099C2.86 9.22099 2 10.071 2 11.121V12.881C2 13.921 2.85 14.781 3.9 14.781C5.71 14.781 6.45 16.061 5.54 17.631" stroke="white" stroke-width="1.5" stroke-miterlimit="10" stroke-linecap="round" stroke-linejoin="round"/>
</svg>
