<svg width="48" height="48" viewBox="0 0 48 48" fill="none" xmlns="http://www.w3.org/2000/svg">
<path d="M37.34 4H33.54C29.18 4 26.88 6.3 26.88 10.66V14.46C26.88 18.82 29.18 21.12 33.54 21.12H37.34C41.7 21.12 44 18.82 44 14.46V10.66C44 6.3 41.7 4 37.34 4ZM14.48 26.86H10.68C6.3 26.86 4 29.16 4 33.52V37.32C4 41.7 6.3 44 10.66 44H14.46C18.82 44 21.12 41.7 21.12 37.34V33.54C21.14 29.16 18.84 26.86 14.48 26.86V26.86ZM12.58 21.16C13.7067 21.16 14.8225 20.9381 15.8634 20.5069C16.9044 20.0757 17.8502 19.4437 18.647 18.647C19.4437 17.8502 20.0757 16.9044 20.5069 15.8634C20.9381 14.8225 21.16 13.7067 21.16 12.58C21.16 11.4533 20.9381 10.3376 20.5069 9.29658C20.0757 8.2556 19.4437 7.30975 18.647 6.51302C17.8502 5.7163 16.9044 5.0843 15.8634 4.65311C14.8225 4.22193 13.7067 4 12.58 4C10.3044 4 8.12209 4.90396 6.51302 6.51302C4.90396 8.12209 4 10.3044 4 12.58C4 14.8556 4.90396 17.0379 6.51302 18.647C8.12209 20.256 10.3044 21.16 12.58 21.16V21.16ZM35.42 44.004C37.6956 44.004 39.8779 43.1 41.487 41.491C43.096 39.8819 44 37.6996 44 35.424C44 33.1484 43.096 30.9661 41.487 29.357C39.8779 27.748 37.6956 26.844 35.42 26.844C33.1444 26.844 30.9621 27.748 29.353 29.357C27.744 30.9661 26.84 33.1484 26.84 35.424C26.84 37.6996 27.744 39.8819 29.353 41.491C30.9621 43.1 33.1444 44.004 35.42 44.004V44.004Z" fill="#52596B"/>
</svg>
